<svg width="18" height="14" viewBox="0 0 18 14" fill="none" xmlns="http://www.w3.org/2000/svg">
<path d="M0.75 12.6699C0.75 13.2666 1.23748 13.7499 1.83811 13.7499H1.85375C1.24393 13.7499 0.75 13.2666 0.75 12.6699Z" fill="#FBBC05"/>
<path d="M10.1011 4.29998V7.11967L13.9026 4.05338V1.32999C13.9026 0.733297 13.4151 0.25 12.8144 0.25H4.57865L4.57129 4.29998H10.1011Z" fill="#FBBC05"/>
<path d="M10.1011 9.94078H4.5621L4.55566 13.7505H12.8144C13.416 13.7505 13.9026 13.2672 13.9026 12.6705V10.2117L10.1011 7.12109V9.94078V9.94078Z" fill="#34A853"/>
<path d="M4.57816 0.25L0.75 4.29998H4.57172L4.57816 0.25Z" fill="#EA4335"/>
<path d="M0.75 9.94043V12.6701C0.75 13.2668 1.24393 13.7501 1.85375 13.7501H4.55517L4.56161 9.94043H0.75V9.94043Z" fill="#1967D2"/>
<path d="M4.57172 4.2998H0.75V9.94008H4.56161L4.57172 4.2998Z" fill="#4285F4"/>
<path d="M17.2449 11.7097V2.43977C17.0306 1.20948 15.6813 2.61977 15.6813 2.61977L13.9033 4.05347V10.2103L16.4484 12.2794C17.3672 12.4 17.2449 11.7097 17.2449 11.7097Z" fill="#34A853"/>
<path d="M10.1006 7.11958L13.903 10.2111V4.0542L10.1006 7.11958Z" fill="#188038"/>
</svg>
