<svg width="20" height="21" viewBox="0 0 20 21" fill="none" xmlns="http://www.w3.org/2000/svg">
<path d="M6.04102 13H4.79102V9.25H3.54102V8H6.04102V13ZM11.4577 11.75H8.95768V10.9167H10.6243C11.0827 10.9167 11.4577 10.5417 11.4577 10.0833V8.83333C11.4577 8.375 11.0827 8 10.6243 8H7.70768V9.25H10.2077V10.0833H8.54102C8.08268 10.0833 7.70768 10.4583 7.70768 10.9167V13H11.4577V11.75ZM16.4577 12.1667V8.83333C16.4577 8.375 16.0827 8 15.6243 8H12.7077V9.25H15.2077V10.0833H13.541V10.9167H15.2077V11.75H12.7077V13H15.6243C16.0827 13 16.4577 12.625 16.4577 12.1667Z" fill="#808080"/>
</svg>
