<svg width="20" height="21" viewBox="0 0 20 21" fill="none" xmlns="http://www.w3.org/2000/svg">
<path d="M10.0007 5.49967C10.9173 5.49967 11.6673 6.24967 11.6673 7.16634C11.6673 8.08301 10.9173 8.83301 10.0007 8.83301C9.08398 8.83301 8.33398 8.08301 8.33398 7.16634C8.33398 6.24967 9.08398 5.49967 10.0007 5.49967ZM10.0007 13.833C12.2507 13.833 14.834 14.908 15.0007 15.4997H5.00065C5.19232 14.8997 7.75898 13.833 10.0007 13.833ZM10.0007 3.83301C8.15898 3.83301 6.66732 5.32467 6.66732 7.16634C6.66732 9.00801 8.15898 10.4997 10.0007 10.4997C11.8423 10.4997 13.334 9.00801 13.334 7.16634C13.334 5.32467 11.8423 3.83301 10.0007 3.83301ZM10.0007 12.1663C7.77565 12.1663 3.33398 13.283 3.33398 15.4997V17.1663H16.6673V15.4997C16.6673 13.283 12.2257 12.1663 10.0007 12.1663Z" fill="#6458A6"/>
</svg>
