<svg width="20" height="21" viewBox="0 0 20 21" fill="none" xmlns="http://www.w3.org/2000/svg">
<path fill-rule="evenodd" clip-rule="evenodd" d="M10 19.875C14.8325 19.875 18.75 15.9575 18.75 11.125C18.75 6.29251 14.8325 2.375 10 2.375C5.16751 2.375 1.25 6.29251 1.25 11.125C1.25 12.6943 1.66312 14.1671 2.38655 15.4406L1.25 19.875L5.82179 18.8149C7.06336 19.4909 8.48682 19.875 10 19.875ZM10 18.5288C14.089 18.5288 17.4038 15.214 17.4038 11.125C17.4038 7.03597 14.089 3.72115 10 3.72115C5.91097 3.72115 2.59615 7.03597 2.59615 11.125C2.59615 12.7038 3.09031 14.1672 3.9324 15.3689L3.26923 17.8558L5.79996 17.2231C6.99335 18.0466 8.44036 18.5288 10 18.5288Z" fill="#BFC8D0"/>
<path d="M17.5 10.5C17.5 14.6421 14.1421 18 10 18C8.4201 18 6.9543 17.5115 5.74541 16.6773L3.18182 17.3182L3.8536 14.799C3.00058 13.5817 2.5 12.0993 2.5 10.5C2.5 6.35786 5.85786 3 10 3C14.1421 3 17.5 6.35786 17.5 10.5Z" fill="#808080"/>
<path fill-rule="evenodd" clip-rule="evenodd" d="M10 19.25C14.8325 19.25 18.75 15.3325 18.75 10.5C18.75 5.66751 14.8325 1.75 10 1.75C5.16751 1.75 1.25 5.66751 1.25 10.5C1.25 12.0693 1.66312 13.5421 2.38655 14.8156L1.25 19.25L5.82179 18.1899C7.06336 18.8659 8.48682 19.25 10 19.25ZM10 17.9038C14.089 17.9038 17.4038 14.589 17.4038 10.5C17.4038 6.41097 14.089 3.09615 10 3.09615C5.91097 3.09615 2.59615 6.41097 2.59615 10.5C2.59615 12.0788 3.09031 13.5422 3.9324 14.7439L3.26923 17.2308L5.79996 16.5981C6.99335 17.4216 8.44036 17.9038 10 17.9038Z" fill="white"/>
<path d="M7.81251 6.43737C7.60447 6.01951 7.28533 6.0565 6.96292 6.0565C6.38673 6.0565 5.48828 6.74668 5.48828 8.03116C5.48828 9.08386 5.95216 10.2362 7.51526 11.96C9.02378 13.6236 11.0059 14.4842 12.6514 14.4549C14.2969 14.4256 14.6354 13.0096 14.6354 12.5314C14.6354 12.3194 14.5039 12.2137 14.4133 12.185C13.8525 11.9158 12.8183 11.4144 12.583 11.3202C12.3477 11.226 12.2248 11.3534 12.1484 11.4227C11.935 11.6261 11.512 12.2254 11.3672 12.3602C11.2224 12.495 11.0064 12.4268 10.9166 12.3758C10.5859 12.2432 9.68933 11.8444 8.97467 11.1516C8.09083 10.2948 8.03896 10 7.87244 9.73763C7.73922 9.52772 7.83698 9.39892 7.88576 9.34264C8.07619 9.12292 8.33913 8.78368 8.45705 8.6151C8.57496 8.44652 8.48135 8.19058 8.42518 8.03116C8.18361 7.34557 7.97895 6.77166 7.81251 6.43737Z" fill="white"/>
</svg>
