<svg width="20" height="21" viewBox="0 0 20 21" fill="none" xmlns="http://www.w3.org/2000/svg">
<path d="M5.83513 10.5H8.96013C9.93679 10.5 10.8535 10.1667 11.511 9.6025C11.8891 9.28639 12.179 8.87789 12.3526 8.41667H5.83429C5.61328 8.41667 5.40132 8.32887 5.24504 8.17259C5.08876 8.01631 5.00096 7.80435 5.00096 7.58333C5.00096 7.36232 5.08876 7.15036 5.24504 6.99408C5.40132 6.8378 5.61328 6.75 5.83429 6.75H12.3526C12.179 6.28877 11.8891 5.88028 11.511 5.56417C10.8526 5.00083 9.93679 4.66667 8.96013 4.66667H5.83429C5.61328 4.66667 5.40132 4.57887 5.24504 4.42259C5.08876 4.26631 5.00096 4.05435 5.00096 3.83333C5.00096 3.61232 5.08876 3.40036 5.24504 3.24408C5.40132 3.0878 5.61328 3 5.83429 3H8.95929L9.10929 3.00167L9.16763 3H15.001C15.222 3 15.4339 3.0878 15.5902 3.24408C15.7465 3.40036 15.8343 3.61232 15.8343 3.83333C15.8343 4.05435 15.7465 4.26631 15.5902 4.42259C15.4339 4.57887 15.222 4.66667 15.001 4.66667H12.9801C13.5313 5.24702 13.9124 5.96771 14.0818 6.75H15.001C15.222 6.75 15.4339 6.8378 15.5902 6.99408C15.7465 7.15036 15.8343 7.36232 15.8343 7.58333C15.8343 7.80435 15.7465 8.01631 15.5902 8.17259C15.4339 8.32887 15.222 8.41667 15.001 8.41667H14.0818C13.8851 9.35583 13.361 10.2117 12.596 10.8675C11.6126 11.71 10.3035 12.1667 8.95929 12.1667H8.09429L13.2093 16.5333C13.3714 16.6786 13.4702 16.8814 13.4847 17.0986C13.4991 17.3157 13.4281 17.5299 13.2867 17.6954C13.1453 17.8608 12.9448 17.9644 12.7281 17.9839C12.5113 18.0035 12.2955 17.9375 12.1268 17.8L5.29596 11.9692L5.28763 11.9617C5.14042 11.8346 5.04251 11.6598 5.01098 11.4679C4.97945 11.276 5.01631 11.0792 5.11513 10.9117C5.18875 10.7862 5.29396 10.6821 5.42027 10.6099C5.54659 10.5377 5.68962 10.4998 5.83513 10.5Z" fill="#808080"/>
</svg>
