<svg width="32" height="10" viewBox="0 0 32 10" fill="none" xmlns="http://www.w3.org/2000/svg">
<path d="M0.285511 0.272727H1.78125L4.06108 4.24006H4.15483L6.43466 0.272727H7.9304L4.7642 5.57386V9H3.4517V5.57386L0.285511 0.272727ZM10.8143 9.1321C10.1694 9.1321 9.61399 8.99432 9.14808 8.71875C8.68501 8.44034 8.32706 8.04972 8.07422 7.54688C7.82422 7.04119 7.69922 6.44886 7.69922 5.76989C7.69922 5.09943 7.82422 4.50852 8.07422 3.99716C8.32706 3.4858 8.67933 3.08665 9.13104 2.79972C9.58558 2.51278 10.1168 2.36932 10.7248 2.36932C11.0941 2.36932 11.4521 2.4304 11.7987 2.55256C12.1452 2.67472 12.4563 2.86648 12.7319 3.12784C13.0075 3.3892 13.2248 3.72869 13.3839 4.14631C13.543 4.56108 13.6225 5.06534 13.6225 5.65909V6.1108H8.41939V5.15625H12.3739C12.3739 4.82102 12.3058 4.52415 12.1694 4.26562C12.033 4.00426 11.8413 3.7983 11.5941 3.64773C11.3498 3.49716 11.0629 3.42188 10.7333 3.42188C10.3754 3.42188 10.0629 3.50994 9.79581 3.68608C9.53161 3.85937 9.32706 4.08665 9.18217 4.3679C9.04013 4.64631 8.96911 4.94886 8.96911 5.27557V6.02131C8.96911 6.45881 9.04581 6.83097 9.19922 7.13778C9.35547 7.4446 9.5728 7.67898 9.85121 7.84091C10.1296 8 10.4549 8.07955 10.8271 8.07955C11.0685 8.07955 11.2887 8.04545 11.4876 7.97727C11.6864 7.90625 11.8583 7.80114 12.0032 7.66193C12.1481 7.52273 12.2589 7.35085 12.3356 7.14631L13.5415 7.36364C13.445 7.71875 13.2717 8.02983 13.0217 8.29688C12.7745 8.56108 12.4634 8.76705 12.0884 8.91477C11.7163 9.05966 11.2915 9.1321 10.8143 9.1321ZM16.9411 9.14489C16.5263 9.14489 16.1513 9.06818 15.8161 8.91477C15.4808 8.75852 15.2152 8.53267 15.0192 8.23722C14.826 7.94176 14.7294 7.57955 14.7294 7.15057C14.7294 6.78125 14.8004 6.47727 14.9425 6.23864C15.0845 6 15.2763 5.81108 15.5178 5.67188C15.7592 5.53267 16.0291 5.42756 16.3274 5.35653C16.6257 5.28551 16.9297 5.23153 17.2393 5.1946C17.6314 5.14915 17.9496 5.11222 18.1939 5.08381C18.4382 5.05256 18.6158 5.00284 18.7266 4.93466C18.8374 4.86648 18.8928 4.75568 18.8928 4.60227V4.57244C18.8928 4.20028 18.7876 3.91193 18.5774 3.70739C18.37 3.50284 18.0604 3.40057 17.6484 3.40057C17.2195 3.40057 16.8814 3.49574 16.6342 3.68608C16.3899 3.87358 16.2209 4.08239 16.1271 4.3125L14.9297 4.03977C15.0717 3.64205 15.2791 3.32102 15.5518 3.0767C15.8274 2.82955 16.1442 2.65057 16.5021 2.53977C16.8601 2.42614 17.2365 2.36932 17.6314 2.36932C17.8928 2.36932 18.1697 2.40057 18.4624 2.46307C18.7578 2.52273 19.0334 2.63352 19.2891 2.79545C19.5476 2.95739 19.7592 3.18892 19.924 3.49006C20.0888 3.78835 20.1712 4.17614 20.1712 4.65341V9H18.9268V8.10511H18.8757C18.7933 8.26989 18.6697 8.43182 18.505 8.59091C18.3402 8.75 18.1286 8.8821 17.87 8.98722C17.6115 9.09233 17.3018 9.14489 16.9411 9.14489ZM17.218 8.12216C17.5703 8.12216 17.8714 8.05256 18.1214 7.91335C18.3743 7.77415 18.5661 7.59233 18.6967 7.3679C18.8303 7.14062 18.897 6.89773 18.897 6.6392V5.79545C18.8516 5.84091 18.7635 5.88352 18.6328 5.9233C18.505 5.96023 18.3587 5.9929 18.1939 6.02131C18.0291 6.04687 17.8686 6.07102 17.7124 6.09375C17.5561 6.11364 17.4254 6.13068 17.3203 6.14489C17.0732 6.17614 16.8473 6.22869 16.6428 6.30256C16.4411 6.37642 16.2791 6.48295 16.157 6.62216C16.0376 6.75852 15.978 6.94034 15.978 7.16761C15.978 7.48295 16.0945 7.72159 16.3274 7.88352C16.5604 8.04261 16.8572 8.12216 17.218 8.12216ZM21.8683 9V2.45455H23.0998V3.49432H23.168C23.2873 3.14205 23.4975 2.86506 23.7987 2.66335C24.1026 2.45881 24.4464 2.35653 24.8299 2.35653C24.9094 2.35653 25.0032 2.35937 25.1112 2.36506C25.2219 2.37074 25.3086 2.37784 25.3711 2.38636V3.60511C25.32 3.59091 25.229 3.57528 25.0984 3.55824C24.9677 3.53835 24.837 3.52841 24.7063 3.52841C24.4052 3.52841 24.1367 3.59233 23.9009 3.72017C23.668 3.84517 23.4833 4.01989 23.3469 4.24432C23.2106 4.46591 23.1424 4.71875 23.1424 5.00284V9H21.8683ZM31.3786 4.05256L30.2237 4.2571C30.1754 4.10937 30.0987 3.96875 29.9936 3.83523C29.8913 3.7017 29.7521 3.59233 29.576 3.5071C29.3999 3.42187 29.1797 3.37926 28.9155 3.37926C28.5547 3.37926 28.2536 3.46023 28.0121 3.62216C27.7706 3.78125 27.6499 3.98722 27.6499 4.24006C27.6499 4.45881 27.7308 4.63494 27.8928 4.76847C28.0547 4.90199 28.3161 5.01136 28.6768 5.09659L29.7166 5.33523C30.3189 5.47443 30.7678 5.68892 31.0632 5.97869C31.3587 6.26847 31.5064 6.64489 31.5064 7.10795C31.5064 7.5 31.3928 7.84943 31.1655 8.15625C30.9411 8.46023 30.6271 8.69886 30.2237 8.87216C29.8232 9.04545 29.3587 9.1321 28.8303 9.1321C28.0973 9.1321 27.4993 8.97585 27.0362 8.66335C26.5732 8.34801 26.2891 7.90057 26.1839 7.32102L27.4155 7.13352C27.4922 7.45455 27.6499 7.69744 27.8885 7.86222C28.1271 8.02415 28.4382 8.10511 28.8217 8.10511C29.2393 8.10511 29.5732 8.01847 29.8232 7.84517C30.0732 7.66903 30.1982 7.45455 30.1982 7.2017C30.1982 6.99716 30.1214 6.82528 29.968 6.68608C29.8175 6.54687 29.5859 6.44176 29.2734 6.37074L28.1655 6.12784C27.5547 5.98864 27.103 5.76705 26.8104 5.46307C26.5206 5.15909 26.3757 4.77415 26.3757 4.30824C26.3757 3.92187 26.4837 3.58381 26.6996 3.29403C26.9155 3.00426 27.2138 2.77841 27.5945 2.61648C27.9751 2.4517 28.4112 2.36932 28.9027 2.36932C29.6101 2.36932 30.1669 2.52273 30.5732 2.82955C30.9794 3.13352 31.2479 3.54119 31.3786 4.05256Z" fill="#808080"/>
</svg>
